<svg xmlns="http://www.w3.org/2000/svg" xmlns:xlink="http://www.w3.org/1999/xlink" version="1.1" width="841.89pt" height="595.28pt" viewBox="0 0 841.89 595.28">
<defs>
<clipPath id="clip_0">
<path transform="matrix(1,0,0,-1,0,595.28)" d="M0 595.28H841.89V0H0Z"/>
</clipPath>
</defs>
<g id="layer_1" data-name="">
<g clip-path="url(#clip_0)">
<path transform="matrix(1,0,0,-1,224.2114,256.89515)" d="M0 0C-4.451 .006-8.073 3.626-8.073 8.073-8.073 12.527-4.451 16.151 0 16.151 4.453 16.151 8.076 12.527 8.076 8.073 8.076 3.626 4.453 .006 0 0M23.646 0C19.192 .006 15.568 3.626 15.568 8.073 15.568 12.527 19.192 16.151 23.646 16.151 28.098 16.151 31.719 12.527 31.719 8.073 31.719 3.626 28.098 .006 23.646 0M245.908-79.663C215.705-79.663 209.634-64.611 209.628-40.324L209.653 22.372H224.708L224.702 1.14 249.18 1.142V-13.904H224.703V-40.325C224.713-46.305 225.148-52.482 228.238-57.165 231.544-62.176 237.324-64.612 245.908-64.612H249.189L249.186-79.663ZM270.478-9.332H285.531V-79.704H270.478ZM63.983-80.06V-35.111C63.983-3.734 78.613 2.569 102.218 2.569L103.863 2.57V-12.479L101.741-12.48C90.758-12.48 79.04-14.284 79.04-35.825V-80.06ZM355.086-80.298V-31.38C355.086-20.815 347.71-12.847 337.928-12.847 328.284-12.847 320.713-20.986 320.694-31.376V-79.798H305.632V-31.38C305.647-12.559 319.833 2.191 337.929 2.196 346.804 2.196 354.384-1.281 361.099-8.435L362.653-10.091 364.207-8.434C371.007-1.182 378.346 2.196 387.303 2.196 405.469 2.162 419.649-12.587 419.654-31.381V-80.173H404.611V-31.38C404.611-20.988 397.041-12.847 387.376-12.847 377.71-12.847 370.138-20.988 370.138-31.38V-80.298ZM11.82-81.822C-8.523-81.809-23.864-65.307-23.866-43.437L-23.864-9.145H-8.819V-43.437C-8.791-57.154-.306-66.747 11.814-66.771 24.002-66.747 32.524-57.153 32.546-43.44L32.551-9.145H47.598V-43.437C47.591-65.307 32.208-81.809 11.817-81.822ZM153.879-12.855C139.041-12.879 126.947-24.968 126.921-39.803 126.947-54.651 139.041-66.743 153.879-66.765 168.723-66.743 180.813-54.651 180.837-39.811 180.813-24.968 168.723-12.879 153.886-12.855ZM154.636-81.822C131.477-81.809 112.63-62.961 112.623-39.806 112.63-16.651 131.477 2.192 154.636 2.196 177.789 2.192 196.633-16.651 196.64-39.808 196.633-62.965 177.789-81.813 154.634-81.822ZM-80.603-81.822C-103.76-81.813-122.605-62.967-122.612-39.812V37.804H-107.56V-39.813C-107.534-54.651-95.443-66.743-80.608-66.771-65.762-66.743-53.67-54.651-53.644-39.817-53.67-24.942-65.805-12.847-80.695-12.847-88.42-12.847-94.048-15.937-97.778-19.088V-1.57C-94.515-.121-88.121 2.196-80.604 2.196-57.445 2.196-38.598-16.65-38.591-39.814-38.598-62.964-57.445-81.809-80.605-81.822ZM474.897-81.828C457.632-81.828 441.868-70.993 435.669-54.866 427.382-33.244 438.221-8.898 459.832-.595 464.679 1.264 469.744 2.206 474.885 2.206 492.151 2.206 507.913-8.629 514.107-24.756 514.646-26.154 515.006-27.321 515.319-28.555L469.241-46.238 465.143-35.563 496.589-23.493 494.367-21.178C489.29-15.89 482.178-12.857 474.853-12.857 471.565-12.857 468.325-13.456 465.225-14.638 451.387-19.99 444.434-35.614 449.717-49.469 453.716-59.824 463.84-66.775 474.912-66.775 478.205-66.774 481.446-66.172 484.545-64.984 495.807-60.667 500.102-51.081 501.737-44.546 506.616-45.688 512.949-47.255 516.079-48.034 513.258-62.096 503.387-73.865 489.937-79.028 485.095-80.886 480.035-81.828 474.897-81.828" fill="#dc0a32"/>
<path transform="matrix(1,0,0,-1,502.2069,256.91044)" d="M0 0C-4.672 .004-8.429 3.99-8.048 8.735-7.731 12.688-4.587 15.821-.634 16.125 4.104 16.488 8.074 12.735 8.074 8.073 8.074 3.625 4.452 .004 0 0" fill="#dc0a32"/>
</g>
</g>
</svg>
