<?xml version="1.0" encoding="utf-8"?>
<!-- Generator: Adobe Illustrator 19.2.1, SVG Export Plug-In . SVG Version: 6.00 Build 0)  -->
<svg version="1.1" id="katman_1" xmlns="http://www.w3.org/2000/svg" xmlns:xlink="http://www.w3.org/1999/xlink" x="0px" y="0px"
	 viewBox="0 0 436.4 287.3" style="enable-background:new 0 0 436.4 287.3;" xml:space="preserve">
<style type="text/css">
	.st0{fill:#00000;}
</style>
<title>dergah_logo</title>
<path class="st0" d="M250.2,30.7c0,1.7,1.4,3.1,3.1,3c1.7,0,3.1-1.4,3-3.1c0-1.3-0.9-2.5-2.1-2.9V26c1-0.5,1.4-1.8,0.9-2.8
	c-0.2-0.3-0.5-0.6-0.8-0.8c0.5-0.6,0.4-1.4-0.2-1.9c0,0-0.1,0-0.1-0.1c1.1-0.5,1.5-1.7,1.1-2.8c-0.2-0.6-0.7-1-1.3-1.1v-1.2
	c0.7-0.3,1-1.1,0.7-1.8c-0.1-0.2-0.2-0.4-0.4-0.5c1.1-0.5,1.5-1.7,1-2.8c-0.3-0.6-0.7-1-1.3-1.1V8.4c1.5-0.3,2.4-1.8,2.1-3.2
	c0-0.1-0.1-0.2-0.1-0.3c-0.2,1.1-1,2-2.1,2.2V6.6h0.2c0.4,0,0.8-0.4,0.8-0.8c0-0.3-0.2-0.6-0.6-0.7V3.8c0-0.4-0.3-0.8-0.8-0.8H253
	c-0.4,0-0.8,0.3-0.8,0.8v1.3c-0.3,0.1-0.6,0.4-0.6,0.8s0.3,0.8,0.8,0.8h0.2V7c-1-0.2-1.8-1.1-2-2.1c-0.5,1.4,0.2,3,1.6,3.5
	c0.1,0,0.2,0.1,0.3,0.1v0.7c-1.1,0.3-1.8,1.5-1.4,2.6c0.2,0.6,0.6,1.1,1.1,1.3c-0.6,0.5-0.7,1.3-0.2,1.9c0.1,0.2,0.3,0.3,0.5,0.4
	v1.2c-1.1,0.3-1.7,1.5-1.4,2.6c0.2,0.6,0.6,1.1,1.1,1.3c-0.6,0.4-0.8,1.3-0.3,1.9c0,0,0,0.1,0.1,0.1c-1,0.6-1.3,1.9-0.7,2.9
	c0.2,0.3,0.5,0.6,0.8,0.8V28C251,28.2,250.1,29.4,250.2,30.7z"/>
<path class="st0" d="M255.9,32.9l35.8,70.9h0.1c0.9-0.2,1.9-0.3,2.9-0.4h0.2c-10.5-18.9-35.7-64.2-38.7-70.7
	C256.1,32.8,256,32.8,255.9,32.9z"/>
<path class="st0" d="M255.5,34.4l34.7,68.7c-3.8-1.6-8-2.4-12.2-2.3c-0.4,0-0.7,0-1.1,0L255.5,34.4z"/>
<path class="st0" d="M257,107.7c-1.7,1-3.5,2-5.2,3.1c-5.4-2.7-11.6-0.2-14.3,2.4c-3.3-1.3-10.6-2.9-15.2-0.2c-0.6-0.5-1.3-1-2-1.4
	c4-5.8,12-4.3,16.9-2.2C243.3,104.1,250.3,105,257,107.7z"/>
<path class="st0" d="M206.6,107c12.7-21.5,40.9-69.6,43.6-74.2v-0.1c0.1,0.1,0.3,0.2,0.4,0.2l-42.1,74.2
	C207.9,107.1,207.3,107,206.6,107z"/>
<path class="st0" d="M253.6,34.6l3.8,68.5c-3.9-2.3-13.6-3.9-19.6,0.6l15.5-68.1L253.6,34.6z"/>
<path class="st0" d="M220.8,107l31.7-72.5l-15.6,69.3C228.9,100.9,223,103.7,220.8,107z"/>
<path class="st0" d="M209.5,107.3l41.7-73l-32.1,74c-1.8-0.1-3.5,0-5.2,0.1c-0.7-0.3-1.5-0.5-2.3-0.7
	C210.9,107.6,210.2,107.4,209.5,107.3z"/>
<path class="st0" d="M254.6,34.7l21.4,66.2c-2.1,0.1-4.1,0.5-6.1,1c-4.1-0.5-8.8,0-11.4,1.4L254.6,34.7z"/>
<path class="st0" d="M218.1,138.7c5.6-1.9,10.9-4.5,15.8-7.8c5.5-3.5,10.8-6.9,17-11.1c5.2-3.5,10.6-6.8,16-9.8
	c5-2.7,9.7-4.1,14-4.1c1.3,0,2.7,0.2,4,0.4c0.9,0.1,1.8,0.4,2.7,0.7c-3.4,1.2-6.8,2.6-10,4.2c-4.1,2.1-8,4.4-11.7,6.9
	c-3.9,2.5-7.7,5.1-11.5,7.6c-3.9,2.7-7.5,5-11,7c-3.3,2-6.7,3.7-10.2,5.2c-2.9,1.3-6.1,2-9.3,2C222,140,220,139.5,218.1,138.7
	 M262.5,107.1c-5.5,2.9-10.8,6.1-16,9.6c-4.2,2.8-8.4,5.6-12.7,8.5l-3.5,2.3c-4.9,3.3-10.3,6-15.9,7.9c-0.4-0.7-0.6-1.5-0.8-2.2
	c-0.2-1.1-0.1-2.2,0.3-3.3c0.1-0.3,0-0.6-0.3-0.7l-0.9-0.4c-0.1,0-0.2-0.1-0.3-0.1s-0.2,0-0.2,0c-0.2,0.1-0.3,0.2-0.3,0.4
	c-0.3,1.2-0.5,2.5-0.4,3.8c0,1,0.3,2.1,0.6,3c-2.8,0.9-5.6,1.3-8.5,1.3c-5.7,0-10-1.2-12.7-3.6c-2.6-2.1-4.1-5.3-4.1-8.6
	c0.1-1.4,0.6-2.8,1.5-3.9c1.1-1.5,2.5-2.7,4.1-3.7c1.8-1.2,3.7-2.1,5.8-2.8c2.2-0.7,4.5-1.1,6.9-1.1c3.9,0,7.7,0.7,11.3,2.2
	c3.3,1.4,6.4,3.3,9.1,5.7c0.1,0.1,0.2,0.2,0.4,0.2c0.3,0,0.6-0.3,0.6-0.6c0-0.1,0-0.2-0.1-0.3c-1-1.8-2.3-3.5-3.9-4.8
	c-1.6-1.4-3.4-2.6-5.3-3.7c-1.9-1-3.8-1.8-5.9-2.3c-1.8-0.5-3.6-0.7-5.5-0.7c-2.6,0-5.2,0.4-7.7,1.2c-2.4,0.8-4.7,1.9-6.9,3.3
	c-2,1.4-3.7,3.1-5,5.1c-1.3,1.9-2,4.1-2,6.4c-0.1,2.6,0.8,5.2,2.3,7.3c1.5,2,3.5,3.6,5.7,4.7c2.3,1.2,4.8,2.1,7.3,2.7
	c2.4,0.5,4.8,0.8,7.2,0.8c1.2,0,2.6-0.1,4.1-0.2c1.3-0.2,2.7-0.4,4-0.8c1.4,1.2,3,2,4.7,2.5c2.4,0.7,5,1,7.5,1
	c5.6-0.1,11.1-1.7,16-4.4c5.7-3,11.2-6.4,16.6-10c5.4-3.6,10.9-7.2,16.9-11.1c5.1-3.3,10.6-5.9,16.4-7.6c1.4,1.3,1.9,3.3,1.3,5.1
	c-0.1,0.3,0.1,0.6,0.3,0.7l0.9,0.4c0.1,0,0.2,0.1,0.3,0.1c0.1,0,0.2,0,0.2-0.1c0.2-0.1,0.3-0.2,0.3-0.4c0.6-2.2,0.2-4.5-1.1-6.4
	l2.7-0.5c1.2-0.2,2.4-0.3,3.6-0.3c5.8,0,10,1.2,12.7,3.6c2.6,2.1,4.1,5.3,4.1,8.6c-0.1,1.4-0.6,2.8-1.5,3.9
	c-1.1,1.5-2.5,2.7-4.1,3.8c-1.8,1.2-3.7,2.1-5.8,2.8c-2.2,0.7-4.5,1.1-6.9,1.1c-3.9,0.1-7.7-0.7-11.3-2.2c-3.3-1.4-6.4-3.3-9.1-5.7
	c-0.1-0.1-0.3-0.2-0.4-0.2c-0.3,0-0.6,0.3-0.6,0.6c0,0.1,0,0.2,0.1,0.3c1,1.8,2.3,3.5,3.9,4.8c3.2,2.8,7,4.9,11.1,6
	c1.8,0.5,3.6,0.7,5.5,0.8c2.6,0,5.2-0.4,7.7-1.3c2.4-0.8,4.7-1.9,6.9-3.3c2-1.4,3.7-3.1,5-5.1c1.3-1.9,2-4.1,2-6.4
	c0.1-2.6-0.7-5.2-2.3-7.3c-1.5-1.9-3.5-3.5-5.7-4.7c-2.3-1.2-4.8-2.1-7.3-2.6c-3.5-0.8-7.2-1.1-10.8-0.7c-1.1,0.1-2.2,0.3-3.3,0.6
	c-3.3-2.1-7.8-3.2-13.3-3.2C272.7,103,267.3,104.4,262.5,107.1"/>
<path class="st0" d="M170.6,187.4c-13.3,9.1-20.1,14.3-20.4,15.7c6.9,12.5,14.5,18.7,23,18.7c0.5,0,2-0.2,4.5-0.6
	c2.6-0.4,6.3-1,11.2-1.8c-6.9,6.6-14.7,9.9-23.4,9.9s-15.9-3.8-21.6-11.5c-5.2-6.9-8-15.4-7.8-24.1c-0.1-9.5,2.6-18.9,7.8-26.9
	c5.9-9.1,13.7-13.6,23.2-13.6c5.4,0.1,10.6,1.7,15,4.7c5.6,3.5,8.4,7.6,8.4,12.4C190.5,172.5,183.8,178.2,170.6,187.4 M171.4,163.4
	c-3.4-3.7-6.9-5.6-10.7-5.6c-8.1,0-12.2,10.1-12.2,30.2c-0.1,2.8,0.3,5.7,1,8.4c17.9-12,26.8-19.1,26.8-21.5
	C176.4,171,174.8,167.2,171.4,163.4"/>
<path class="st0" d="M238.3,171c-3-5.5-6-8.2-8.9-8.2c-7.8,0-12.3,4.2-13.4,12.6c-1,7.7-1.6,20.9-1.6,39.6c0,2.7,0.7,5.3,2.1,7.5
	c1.4,2.2,2.9,4.2,4.7,6.1c-7.9-0.4-16.1-0.5-24.5-0.5c5.4-8.3,8-20,8-35.2v-12.7c0-3.8-1.5-9.1-4.5-15.7c4.3-2.2,9.7-6.5,16.1-12.9
	l-0.5,14.3c4.3-4.6,7.3-7.4,8.9-8.4c3.7-2.9,7.4-4.4,11.2-4.4c5.1-0.3,9.5,3.6,9.8,8.8c0,0.3,0,0.7,0,1
	C245.6,164.8,243.1,167.6,238.3,171"/>
<path class="st0" d="M300.1,271.6c-7.7,4.8-16.6,7.3-25.7,7.2c-5.9,0-14.3-1.8-25.1-5.4c-11.1-3.5-19.4-5.2-25.1-5.2
	c-4.6,0-9.2,1.5-14,4.5c3.9-8.3,12.6-12.4,26.1-12.4c6.3,0,15.2,1.8,26.7,5.4c11.9,3.7,20.8,5.6,26.9,5.6c4.9,0,8.9-1.4,12-4.1
	s4.7-6.5,4.7-11.4c-6.4-7.8-10.6-13.5-12.6-16.9c-1.7-2.9-3.2-5.9-4.5-9c-1.4-3.5-2.6-7-3.6-10.6c-9.5,6.1-16.5,9.1-20.8,9.1
	c-6.9,0-12.1-3.8-15.7-11.5c-3-6.4-4.5-13.5-4.4-20.6c0-8,3.4-17,10.1-26.9c7.3-10.7,14.8-16.1,22.3-16.1c3,0,6.9,1.7,11.7,5.1
	c5.4,3.8,9.1,6.2,11.3,7c-1.6,5.2-2.4,9.1-2.4,11.5c0,2.3,0.1,5.2,0.3,8.7c0.2,3.5,0.5,7.6,1,12.4c0.5,4.7,0.8,8.7,1,12.2
	s0.3,6.4,0.3,8.7c0,4.1,2,9.4,6,15.9s6.1,11.5,6.1,14.8C312.8,258.9,308.5,266.2,300.1,271.6 M285.1,173.1
	c-8.8-6.2-13.9-9.3-15.2-9.3c-4,0-7.4,4.2-10.3,12.7c-2.4,7-3.7,12.9-3.7,17.8c0,4.9,1.6,10.1,4.9,15.5c3.7,6.2,7.7,9.3,12,9.3
	c3.1,0,6.2-1,8.6-3.1c2.4-1.9,3.7-4.7,3.7-7.8L285.1,173.1L285.1,173.1z"/>
<path class="st0" d="M313.9,218.8c-3.6-6.1-5.6-13-5.6-20.1c0-7.4,4-16.5,11.9-27.1c8.4-10.9,16.2-16.4,23.4-16.4
	c6.4,5.4,13.8,9.6,21.6,12.4c-2.7,5.1-4,8.3-4,9.4v37.4c0,3.6,1.6,8.2,4.7,13.8h-12.4c-1.1-2.4-1.8-4.9-2.1-7.5
	c-11.2,5.9-18.2,8.9-21.1,8.9C323.7,229.7,318.3,226,313.9,218.8 M350.3,175.4c-3.4-2.4-8.3-6.1-14.7-11c-3.8,0-7.6,3.8-11.2,11.5
	c-3.5,6.9-5.2,12.4-5.2,16.6c0,4,1.2,9,3.7,15c2.9,7,6,10.5,9.3,10.5c4.4,0,10.5-1.2,18.2-3.5L350.3,175.4L350.3,175.4z"/>
<path class="st0" d="M420.7,218.5c-0.9,1.3-7.7,10.4-20.4,27.2c-7.4,9.6-11.2,16.8-11.2,21.5c0,2.8,2.1,5.1,6.3,6.9
	c4.2,2,6.3,4.3,6.3,7.2c0,2.1-1,3.1-2.9,3.1c-3.7,0.1-7.1-1.9-8.9-5.1c-1.9-3.1-2.9-6.7-2.8-10.3c0-5.4,3-12.5,8.9-21.5
	c9.8-14.9,15.3-23.4,16.4-25.5c5.9-11.3,8.9-22.4,8.9-33.1c0.1-5.9-1.7-11.7-5.1-16.6c-3.7-5.2-8.7-7.8-14.8-7.8
	c-2.4,0-5.1,1.5-8,4.4c-2.8,2.8-4.2,5.5-4.2,8v41.4c0,2.8,1.5,6.3,4.5,10.7h-21.5c3-4,4.5-20.4,4.5-49.2c0-30.5-1.2-47.8-3.7-51.9
	c8.1-2.1,14.7-3.8,19.6-5.2c4.9-1.4,8.3-2.4,10.1-3.1c9.7-3.6,18.3-9.7,24.8-17.8h4.4c-2,4.8-6,8.8-12,12c-2.9,1.5-5.8,3-8.6,4.5
	l-8.4,4.5c-6.4,4.1-11.2,10.2-13.8,17.3v27.8c1.5-0.5,4.7-2.4,9.4-5.8c3.6-2.4,7-3.7,10.3-3.7c7.3,0,13.2,3.4,17.5,10.1
	c3.8,6.1,5.8,13.2,5.6,20.4C431.9,197.4,428.2,207.2,420.7,218.5"/>
<path class="st0" d="M59.6,257.4c0-7,4.1-13.1,14.7-13.1S89,250.4,89,257.4c0,7-4.1,13.1-14.7,13.1S59.6,264.4,59.6,257.4
	 M83.4,257.4c0-5.4-3.3-9.2-9.2-9.2S65,252,65,257.4c0,5.4,3.3,9.2,9.2,9.2S83.4,262.8,83.4,257.4"/>
<polygon class="st0" points="109.6,248.9 100.2,248.9 100.2,245 124.1,245 124.1,248.9 114.8,248.9 114.8,269.8 109.6,269.8 "/>
<polygon class="st0" points="137.6,245 159.2,245 159.2,248.9 142.8,248.9 142.8,255.2 158.6,255.2 158.6,259.1 142.8,259.1 
	142.8,266 159.5,266 159.5,269.8 137.6,269.8 "/>
<polygon class="st0" points="173,245 178.2,245 178.2,265.7 193.4,265.7 193.4,269.8 173,269.8 "/>
<path class="st0" d="M23,226.2c-4,0.8-7.7,2.4-11,4.7c-3,2.1-5.2,5-6.6,8.4c-1.5,3.4-1,7.3,1.3,10.2c1.2,1.6,2.6,1.8,4.3,0.5
	c2.2-1.7,2.9-4.8,2-9.3c-1.1-4.4-0.5-7.4,1.7-9.1c3.7-2.8,11.4-4.6,23.6-4.5c5.9,0,26.7,0,32.3-0.1c0.1,0,2,0,1.9,0
	c13.2,0.6,24.5-3.4,33.8-11.3c8.7-7.4,15.1-17.7,19-30.9c3.4-11.2,5.1-21.1,5.1-29.7c0-15.4-2.4-28.5-7.3-39.3
	c-6.4-14.4-16.2-21.7-29.6-21.7c-9.7,0-19.8,3.8-30.6,11.3c-4.3,3.5-8.6,7-12.7,10.5c-4.2,3.5-8.4,7-12.7,10.5
	c-9.7,7.6-18,11.3-25,11.3c-0.4,0-0.8,0-1.1,0c-0.5-0.1-1.1-0.1-1.7-0.3v6.5c6.3-1.2,11.3-2,14.9-2.5c2.4-0.4,4.8-0.7,7.2-0.8
	c2.9-0.1,5.8,0.5,8.4,1.7V205c0,9.1-2.3,14.9-7,17.5c-2.5,1.4-5.3,2.5-8.1,3.2L23,226.2z M103.1,203.7c-7.2,12.8-19.2,19.2-36,19.2
	c-3.4,0-6.9-1.7-10.7-5.1v-90.1c0-5.6,3.1-11,9.3-16.2c6.2-5.4,12.2-8,18-8c10.2,0,17.7,7.5,22.5,22.5c3.3,10.1,4.9,21.9,4.9,35.4
	C111.1,179.9,108.4,194,103.1,203.7"/>
<polygon class="st0" points="42,245 42,255.2 42,255.2 31.5,255.2 31.4,255.2 31.4,245 26.2,245 26.2,255.2 26.2,259 26.2,269.8 
	31.4,269.8 31.4,259 42,259 42,269.8 47.2,269.8 47.2,259 47.2,255.2 47.2,245 "/>
<path class="st0" d="M342.8,127.8c2.2,2.8,4.6,5.7,7.2,8.5s5.4,5.7,8.4,8.6l-3.9,1.5c-2.7-2-5.2-3.9-7.5-5.7s-4.4-3.5-6.3-5.1
	c-1.6,1.4-3.6,2.9-6,4.7l-8.1,6.1l-3.9-1.5c5.6-5.4,10.9-11.1,15.8-17.1L342.8,127.8L342.8,127.8z"/>
</svg>
