<svg version="1.1" xmlns="http://www.w3.org/2000/svg" xmlns:xlink="http://www.w3.org/1999/xlink" xmlns:a="http://ns.adobe.com/AdobeSVGViewerExtensions/3.0/" x="0px" y="0px" viewBox="0 0 1000 1051" enable-background="new 0 0 1000 1051" xml:space="preserve">
<defs>
</defs>
    <g class="bottom">
	<rect x="7.4" y="660.5" fill-rule="evenodd" clip-rule="evenodd" fill="#FFC27B" width="985.3" height="187.9"></rect>
        <rect x="7.4" y="855.3" fill-rule="evenodd" clip-rule="evenodd" fill="#FFC27B" width="985.3" height="187.9"></rect>
        <path fill-rule="evenodd" clip-rule="evenodd" fill="#572932" d="M937.2,685.2l17.7,0v13.7l-17.7,0L937.2,685.2z M954.9,802.4
		h-17.7v-96.1h17.7V802.4z M251.4,722.8c-2.2,0.1-4,0.2-4.5,0.2v79.3H230v-96.1h18.7c17.6-0.8,36.8,3,40.7,28.3
		c1.1,6.9-0.5,21.4-13.9,30.4l19.8,37.5h-19.9l-26.3-49.5c4.8,2.8,9.2,2.4,14.1,0c6.3-3,8.8-8.6,8.7-15.5
		c-0.1-7.3-4.8-12.8-12.4-14.1C257.2,722.8,254,722.8,251.4,722.8 M462.9,802.4l-37.5-48.6l31-47.5h22.3l-32.7,47.9l39.7,48.2H462.9
		z M406.3,706.3h17.5v96.1h-17.5V706.3z M138.1,778.5l-0.7-6v-66.2h17.5l0,68.4c1.2,8,9,14,16,13.3c10.2-1.1,14.8-5.3,15.9-13.3
		v-68.4h17.3v66.6l-0.5,5.2c-1.9,16.2-16.1,26.7-32.4,26.9C154.9,805.1,139.8,795,138.1,778.5 M686.2,706.3l24.9,58l24.5-58h19.1
		l-44.1,101l-42.5-101H686.2z M544.1,776.3l-13.8-31.5l-13.9,31.5H544.1z M573.7,802.4h-18.6l-5.1-11.5h-39.4l-4.9,11.5h-18.7
		l43.3-100.9L573.7,802.4z M313.9,778.5l-0.7-6v-66.2h17.5v68.4c1.2,8,9,14,16,13.3c10.2-1.1,14.7-5.3,15.9-13.3v-68.4H380v66.6
		l-0.5,5.2c-1.9,16.2-16.1,26.7-32.4,26.9C330.7,805.1,315.5,795,313.9,778.5 M101.7,802.4l-37.5-48.6l31-47.5h22.3l-32.6,47.9
		l39.7,48.2H101.7z M45.1,706.3h17.5v96.1H45.1V706.3z M816.9,802.4h-48.8v-96.1h48.8V721h-31.5v23.8h25.5v12.8h-25.3v29.6h31.4
		V802.4z M608.9,762.5v39.9h-17.4v-96.1h17.4v41.4h28.2v-41.4h17.4v96.1h-17.4v-39.9H608.9z M886.4,806.8
		c-29.1,0-52.6-23.6-52.6-52.6c0-29.1,23.6-52.6,52.6-52.6c11.2,0,21.9,3.5,31,10.1l-11.9,13.6c-5.7-3.8-12.2-5.7-19.1-5.7
		c-19.1,0-34.5,15.5-34.5,34.5c0,19.1,15.5,34.5,34.5,34.5c6.6,0,12.8-1.8,18.4-5.3l12.3,13.6C908.1,803.3,897.5,806.8,886.4,806.8
		 M625.5,997.1h-48.4v-95.7h48.4v14.8h-31.3v23.7h25.3v12.7h-25.2v29.3h31.1V997.1z M747,997.1h-48.4v-95.7H747v14.8h-31.3v23.7
		h25.3v12.7h-25.2v29.3H747V997.1z M465.9,997.1h-48.4v-95.7h48.4v14.8h-31.3v23.7h25.3v12.7h-25.2v29.3h31.1V997.1z M398.5,997.1
		h-18.1v-54.2l-28.3,32.7l-28.9-33.3v54.8h-18.1V896.2l47,55l46.3-55V997.1z M937.3,880.7l17.6,0v13.6h-17.6L937.3,880.7z
		 M954.9,997.1h-17.6v-95.7h17.6V997.1z M865.2,919.2v60.1h14.2c13.8-0.6,27.4-14,27.4-29.1c0-16-13.5-30.2-27.5-31H865.2z
		 M924.8,949.9c0,26.3-21.3,47.1-46.6,47.1h-31.1v-95.7H878C903.5,901.4,924.8,923.3,924.8,949.9 M655.2,997.1H638v-95.7h48.4v14.8
		h-31.3v23.7h24.3v12.7h-24.3V997.1z M206.2,997.1h-48.4v-95.7h48.4v14.8h-31.3v23.7h25.3v12.7h-25.2v29.3h31.1V997.1z M240.5,957.2
		v39.8h-17.3v-95.7h17.3v41.2h28v-41.2h17.3v95.7h-17.3v-39.8H240.5z M779.5,942.5v54.6h-18.2V896.2l49.7,58.1v-52.9h18.5v100.9
		L779.5,942.5z M514.8,916.2v80.9h-18.2v-80.9h-18v-14.8h54.2v14.8H514.8z M138.4,997.1h-18v-54.2l-28.3,32.7l-28.9-33.3v54.8H45.1
		V896.2l47,55l46.3-55V997.1z M1000,653.1V1051H0l0-397.9H1000z M992.7,660.5H7.4v187.9h985.3V660.5z M7.4,1043.6h985.3V855.7H7.4
		V1043.6z"></path>
</g>
    <g>
	<path fill-rule="evenodd" clip-rule="evenodd" fill="#572932" d="M265.7,655.7V505l7.6-8.2v-24.4l76.4-16.1h40.1l-22.2-20.3v-59.1
		L343.6,357V247.8l35.8-28.1c-2-9.4-2.4-16.4-2.4-26.4c0-77.3,64.4-136.7,135.4-135.3c70.6-0.6,135.3,58,135.3,135.3
		c0,10.2-3,26.4-3,26.4l36.1,28.1V357l-24,19.7v59.4c0,0-80.4,71-93.4,81.9c-10.9,9.1-19.5,14.5-42.8,14.4
		c-32.4-0.2-45.4-13.2-45.4-13.2h-61.4v32.9l-3.2,2.5l2.8,3.2v30.1l-28.6,37.4h-19.4v30.4"></path>
        <g>
		<path fill-rule="evenodd" clip-rule="evenodd" fill="#FFC27B" d="M462.4,456.2h-63.1l-23.2-21V265l11-8.9l21.6,15.1v26.5h29.1
			v-26.3l24.5-15.4l12.1,9v122.8l-6.5,5.9l23.5,20.1l15.7-15.6V247.8l-44.8-33.8l-39.3,28.2l-36-28.2c0,0-2-12.5-2-20.6
			c0-72.8,57-127.5,127.2-127.2c68.1,0.5,126.4,54.1,126.6,127.2c0,9.8-1.8,20.6-1.8,20.6l-35.6,28.2l-42.7-28.4l-41.7,34.1v150.4
			l15.7,15.6l23.5-20.1l-5.3-5.9V266.7l12.8-10.6l23,15.6v26h29.1v-26.5l21.9-15l10.4,8.5v170.5l-74.3,65.3l0-43.2
			c0,0-23.8-10.6-56.2-10.7C486.3,446.4,462.4,456.2,462.4,456.2"></path>
            <path fill-rule="evenodd" clip-rule="evenodd" fill="#FFC27B" d="M490.3,520.5c0-2.7,16.1-6.6,29.4-6.6c9.8-0.2,29.4,3.9,29.4,6.6
			c0.1,2.2-14.7,6.1-29.4,6.4C506.7,526.9,490.4,522.8,490.3,520.5"></path>
            <path fill-rule="evenodd" clip-rule="evenodd" fill="#FFC27B" d="M469.1,460.8c0,0,17.1-8.7,48.6-8.6c32.1,0.1,50.3,9.7,50.3,9.7
			v43.6l-12.4,10.7c0,0-10.7-7.4-36.3-7.7c-24.2-0.3-35.8,8-35.8,8s-5.7-5.5-6.1-9.4c-0.9-9.1-0.1-6.8-2.8-14.1
			c-1.5-4-5.6-8.5-5.8-14.6C468.4,471.9,469.1,460.8,469.1,460.8"></path>
            <path fill-rule="evenodd" clip-rule="evenodd" fill="#FFC27B" d="M461.6,478.9c-0.8-5.1,0.8-11.4,0-12.9c0,0,1.5-3.9-2.2-4H350.2
			L280,477v22.6l-8,8.2l8.7,10.6v30.1l12.5,6.6v5.4l27,26.7h86.4v-27.5h-59.3v-10.3h58.2v-30.1H342c0,0-10.1-9.2,3.4-14
			c13.5-4.8,17.3-5.8,17.3-5.8h106.2C470.6,499.6,463,487.2,461.6,478.9"></path>
	</g>
        <path fill-rule="evenodd" clip-rule="evenodd" fill="#572932" d="M400.8,92l5.9,4.5L418.3,86l-13.2-16.9l-9.1,8.3
		c0,0,0.8-9-1.6-13.9c-2.3-4.7-6.2-6.9-11.4-6.9c-6.7,0-10.7,3.2-15.3,7.7c-7.9,7.9-16.9,22.2-16.9,22.2l0.8,0.5l40.7,28.1l9.9-13.2
		l-5.8-5L400.8,92z"></path>
        <path fill-rule="evenodd" clip-rule="evenodd" fill="#FFFFFF" d="M374,78.7c1.2-3.3,5.5-5.6,8.4-3.6c4.9,3.5,0.3,9.6,0.3,9.6
		L374,78.7z"></path>
        <path fill-rule="evenodd" clip-rule="evenodd" fill="#572932" d="M391.2,42.5l14.8-10.9c0,0,17.7,27.5,20.8,25.3
		c3.2-2.2-13.3-30.1-13.3-30.1l16.1-8.8l14.1,27.5c0,0,8.6,16.2-4.3,27c-13.7,11.5-25.2,1.3-28.4-3
		C405.2,61.6,391.2,42.5,391.2,42.5"></path>
        <path fill-rule="evenodd" clip-rule="evenodd" fill="#572932" d="M327.1,135.4l7.8-19.7c0,0,29,12.8,30.1,10.6
		c1.3-2.7-26.7-17.7-26.7-17.7l8.9-16.6l25.8,17c0,0,17.6,10.2,11,25.7c-6.7,15.7-25.6,10.1-25.6,10.1L327.1,135.4z"></path>
        <polygon fill-rule="evenodd" clip-rule="evenodd" fill="#572932" points="318.6,195 369.3,195.5 369.7,178.2 362,178.1
		362.1,171.6 370.5,171.1 375.2,151.1 350.3,148.2 346.3,163.1 325.4,141.9 320.5,164.1 331.5,175.1 319.1,174.9 	"></polygon>
        <polygon fill-rule="evenodd" clip-rule="evenodd" fill="#572932" points="500.1,51.3 528.9,0.5 548,2.9 553.7,56.7 535.1,52.4
		534.4,46 528.5,51.5 524.4,44.9 521.1,51.2 	"></polygon>
        <polygon fill-rule="evenodd" clip-rule="evenodd" fill="#FFFFFF" points="533.6,28.3 534.3,39 528.4,37.8 	"></polygon>
        <polygon fill-rule="evenodd" clip-rule="evenodd" fill="#572932" points="654.4,175.1 679.1,173.9 679.6,195.4 654.9,195.1 	"></polygon>
        <polygon fill-rule="evenodd" clip-rule="evenodd" fill="#572932" points="686.1,173.7 704.8,173 705.5,195.4 686.8,195.4 	"></polygon>
        <path fill-rule="evenodd" clip-rule="evenodd" fill="#572932" d="M702.9,166.5c-0.5-4.6-0.6-8.1-0.9-12.2
		c-0.9-14.5-13.1-24.2-27.5-23.3c-14.1,0.9-26,14.2-24.4,25.8c1.1,8.2,1.2,9.9,2.8,12.7l22.7-1.3c-8.3-5.9-4.9-16.3,3.1-16
		c8.8,0.3,8.8,10.1,5.8,15.2L702.9,166.5z"></path>
        <polygon fill-rule="evenodd" clip-rule="evenodd" fill="#572932" points="629.6,111.5 670.3,82 690,116.4 672.3,124.7 664.1,110.9
		658.3,114.5 664.8,127.8 645.1,139.4 	"></polygon>
        <polygon fill-rule="evenodd" clip-rule="evenodd" fill="#572932" points="630.2,39.9 645.2,52.2 639.6,68.1 654.6,62.1 666.7,76.3
		618.3,97.5 607.6,86.8 	"></polygon>
        <polygon fill-rule="evenodd" clip-rule="evenodd" fill="#572932" points="558.2,58.1 575.2,10.1 596.9,19 589.6,34.9 598.7,40
		606.8,24.4 625.6,36.1 598.7,78.7 584.2,69.4 590.8,55 582,50.6 575.3,65 	"></polygon>
        <polygon fill-rule="evenodd" clip-rule="evenodd" fill="#572932" points="487,42.8 495,50.4 506.8,29.3 497.2,23.6 499.7,0
		479.4,2.4 476.5,15 472.4,15.7 467.9,5.2 446.8,10.9 462.3,59.6 483.5,53.5 483,43.8 	"></polygon>
        <polygon fill-rule="evenodd" clip-rule="evenodd" fill="#572932" points="530.8,422.5 512.1,441.2 493.5,422.5 512.1,403.9 	"></polygon>
</g>
</svg>