<svg xmlns="http://www.w3.org/2000/svg" xmlns:xlink="http://www.w3.org/1999/xlink" version="1.1" width="841.89pt" height="595.28pt" viewBox="0 0 841.89 595.28">
<defs>
<clipPath id="clip_0">
<path transform="matrix(1,0,0,-1,0,595.28)" d="M0 595.28H841.89V0H0Z"/>
</clipPath>
</defs>
<g id="layer_1" data-name="">
<g clip-path="url(#clip_0)">
<path transform="matrix(1,0,0,-1,774.9316,297.24784)" d="M0 0C0-80.246-65.656-145.902-145.902-145.902H-562.768C-643.014-145.902-708.67-80.246-708.67 0V.006C-708.67 80.252-643.014 145.908-562.768 145.908H-145.902C-65.656 145.908 0 80.252 0 .006Z" fill="#231f20"/>
<path transform="matrix(1,0,0,-1,681.1328,230.52173)" d="M0 0V-152.326H-32.958V.504C-32.958 1.872-34.032 2.979-36.246 3.76-38.068 4.785-40.461 5.29-43.456 5.29-46.32 5.29-48.908 4.785-51.073 3.76-52.961 2.979-53.84 1.872-53.84 .504V-152.326H-86.815V17.936H-53.84V10.856C-51.269 13.558-47.997 15.527-43.977 16.895-39.924 18.229-34.032 18.945-26.383 18.945-8.772 18.945 0 12.663 0 0M-168.211-.537V-105.386H-147.313V-.537C-147.313 3.32-150.796 5.29-157.762 5.29-164.68 5.29-168.211 3.32-168.211-.537M-201.202-4.297C-201.202 3.239-197.865 8.952-191.29 12.858-184.341 16.895-173.159 18.945-157.762 18.945-141.648 18.945-130.467 17.09-124.233 13.362-117.625 9.668-114.289 3.955-114.289-3.76V-152.326H-147.313V-118.75H-168.211V-152.326H-201.202ZM-296.611 17.936H-217.445V5.566L-265.834-138.671H-217.982V-152.326H-297.1V-139.941L-247.084 4.297H-296.611ZM-320.456 4.297V-152.326H-353.431V4.297C-358.281 6.445-362.627 9.619-366.062 13.639-377.764 27.376-374.15 46.647-358.118 56.738-348.955 62.5-337.709 63.867-327.553 61.621-333.998 61.865-340.654 60.318-346.351 56.803-359.355 48.73-362.285 33.04-352.813 21.924-343.291 10.693-325.063 8.252-312.009 16.357-306.279 19.856-302.602 24.788-300.908 30.176-301.462 21.191-306.572 12.483-315.736 6.803-317.266 5.843-318.828 5.029-320.456 4.297M-521.073 17.936H-488.114V10.596C-483.003 13.477-478.576 15.527-474.947 16.895-471.252 18.229-465.963 18.945-459.013 18.945-451.656 18.945-446.546 18.311-443.567 17.139-440.296 15.983-437.22 14.111-434.241 11.572-430.937 14.111-427.274 15.983-423.238 17.139-418.844 18.311-414.254 18.945-409.501 18.945-400.696 18.945-393.763 17.497-388.619 14.648-383.46 11.735-380.921 8.154-380.921 3.76V-152.326H-413.912V.504C-413.912 1.709-414.823 2.767-416.63 3.76-418.47 4.785-420.862 5.29-423.808 5.29-430.774 5.29-434.241 3.76-434.241 .7V-152.326H-467.216V.504C-467.216 1.872-468.371 2.979-470.536 3.76-472.311 4.785-474.719 5.29-477.665 5.29-480.578 5.29-483.149 4.785-485.347 3.76-487.187 2.979-488.114 1.872-488.114 .504V-152.326H-521.073Z" fill="#ed1c24"/>
<path transform="matrix(1,0,0,-1,629.0342,172.17264)" d="M0 0H-249.444V-10.417H0C63.069-10.417 114.632-62.011 114.632-125.064 114.632-188.101 63.069-239.712 0-239.712H-416.858C-479.896-239.712-531.507-188.101-531.507-125.064-531.507-62.011-479.896-10.417-416.858-10.417H-331.769V0H-416.858C-485.641 0-541.923-56.282-541.923-125.064-541.923-193.847-485.641-250.145-416.858-250.145H0C68.798-250.145 125.064-193.847 125.064-125.064 125.064-56.282 68.798 0 0 0" fill="#d88d29"/>
<path transform="matrix(1,0,0,-1,692.7871,297.23655)" d="M0 0C0 11.507 9.326 20.866 20.85 20.866 32.356 20.866 41.683 11.507 41.683 0 41.683-11.507 32.356-20.833 20.85-20.833 9.326-20.833 0-11.507 0 0M3.369 0C3.369-9.652 11.182-17.464 20.833-17.464 30.484-17.464 38.33-9.652 38.33 0 38.33 9.651 30.484 17.448 20.85 17.448 11.182 17.448 3.369 9.651 3.369 0" fill="#d88d29"/>
<path transform="matrix(1,0,0,-1,709.5674,289.53834)" d="M0 0V-6.592H5.647C7.991-6.592 9.18-5.469 9.18-3.239 9.18-1.074 7.991 0 5.647 0ZM-5.127-19.401V4.004H7.471C9.554 4.004 11.198 3.353 12.5 2.1 13.721 .879 14.323-.651 14.323-2.458 14.323-5.354 13.086-7.34 10.628-8.317V-8.382C12.679-8.903 13.818-10.725 14.03-13.867 14.095-14.811 14.16-15.739 14.226-16.667 14.372-17.936 14.632-18.847 15.022-19.401H9.863C9.619-18.798 9.456-17.919 9.31-16.764 9.212-15.771 9.147-14.794 9.065-13.801 8.87-12.516 8.496-11.604 7.91-11.084 7.356-10.53 6.429-10.254 5.159-10.254H0V-19.401Z" fill="#d88d29" fill-rule="evenodd"/>
</g>
</g>
</svg>
